<svg xmlns="http://www.w3.org/2000/svg" xmlns:xlink="http://www.w3.org/1999/xlink" width="20" height="20" viewBox="0 0 20 20">
  <defs>
    <clipPath id="clip-path">
      <rect id="Rectangle_1" data-name="Rectangle 1" width="20" height="20" transform="translate(207 403)" fill="#fff"/>
    </clipPath>
  </defs>
  <g id="Mask_Group_1" data-name="Mask Group 1" transform="translate(-207 -403)" clip-path="url(#clip-path)">
    <g id="call" transform="translate(207 77.103)">
      <g id="Grupo_41" data-name="Grupo 41" transform="translate(0 325.898)">
        <g id="Grupo_40" data-name="Grupo 40">
          <path id="Caminho_45" data-name="Caminho 45" d="M19.609,15.9,17.393,14.42l-1.971-1.31a.873.873,0,0,0-1.172.19l-1.22,1.568a.869.869,0,0,1-1.111.23,14.2,14.2,0,0,1-3.965-3.055A14.3,14.3,0,0,1,4.9,8.078a.869.869,0,0,1,.23-1.111L6.7,5.749a.873.873,0,0,0,.19-1.172L5.615,2.666,4.1.389A.873.873,0,0,0,2.921.124L1.17,1.175A2.14,2.14,0,0,0,.2,2.434C-.281,4.18-.377,8.032,5.8,14.2s10.024,6.074,11.77,5.6a2.139,2.139,0,0,0,1.259-.972l1.05-1.751A.873.873,0,0,0,19.609,15.9Z" fill="#f2f2f2"/>
          <path id="Caminho_46" data-name="Caminho 46" d="M209.572,46.457a5.868,5.868,0,0,1,5.862,5.862.345.345,0,1,0,.69,0,6.558,6.558,0,0,0-6.551-6.551.345.345,0,0,0,0,.69Z" transform="translate(-198.195 -43.354)" fill="#f2f2f2"/>
          <path id="Caminho_47" data-name="Caminho 47" d="M209.572,85.687a3.8,3.8,0,0,1,3.793,3.793.345.345,0,1,0,.69,0A4.488,4.488,0,0,0,209.572,85a.345.345,0,1,0,0,.69Z" transform="translate(-198.194 -80.514)" fill="#f2f2f2"/>
          <path id="Caminho_48" data-name="Caminho 48" d="M209.572,124.918a1.726,1.726,0,0,1,1.724,1.724.345.345,0,0,0,.69,0,2.416,2.416,0,0,0-2.414-2.414.345.345,0,0,0,0,.69Z" transform="translate(-198.195 -117.677)" fill="#f2f2f2"/>
        </g>
      </g>
    </g>
  </g>
</svg>
