<svg xmlns="http://www.w3.org/2000/svg" width="27" height="27" viewBox="0 0 27 27">
  <g id="call" transform="translate(0 -440)">
    <g id="Grupo_41" data-name="Grupo 41" transform="translate(0 440)">
      <g id="Grupo_40" data-name="Grupo 40" transform="translate(0 0)">
        <path id="Caminho_45" data-name="Caminho 45" d="M26.475,21.469l-2.993-2L20.821,17.7a1.179,1.179,0,0,0-1.583.257l-1.647,2.117a1.173,1.173,0,0,1-1.5.31,19.171,19.171,0,0,1-5.353-4.125,19.308,19.308,0,0,1-4.125-5.353,1.173,1.173,0,0,1,.31-1.5L9.043,7.762A1.179,1.179,0,0,0,9.3,6.179L7.581,3.6,5.531.525A1.179,1.179,0,0,0,3.944.168L1.58,1.586a2.889,2.889,0,0,0-1.312,1.7c-.647,2.357-.777,7.558,7.557,15.892s13.534,8.2,15.891,7.557a2.888,2.888,0,0,0,1.7-1.312l1.418-2.364A1.179,1.179,0,0,0,26.475,21.469Z" transform="translate(0 0)" fill="#f2f2f2"/>
        <path id="Caminho_46" data-name="Caminho 46" d="M282.947,62.723a7.923,7.923,0,0,1,7.914,7.914.466.466,0,1,0,.931,0,8.854,8.854,0,0,0-8.845-8.845.466.466,0,0,0,0,.931Z" transform="translate(-267.586 -58.533)" fill="#f2f2f2"/>
        <path id="Caminho_47" data-name="Caminho 47" d="M282.947,115.687a5.127,5.127,0,0,1,5.121,5.121.466.466,0,1,0,.931,0,6.059,6.059,0,0,0-6.052-6.052.466.466,0,1,0,0,.931Z" transform="translate(-267.585 -108.704)" fill="#f2f2f2"/>
        <path id="Caminho_48" data-name="Caminho 48" d="M282.947,168.654a2.33,2.33,0,0,1,2.328,2.328.466.466,0,0,0,.931,0,3.262,3.262,0,0,0-3.259-3.259.466.466,0,0,0,0,.931Z" transform="translate(-267.586 -158.878)" fill="#f2f2f2"/>
      </g>
    </g>
  </g>
</svg>
