<svg xmlns="http://www.w3.org/2000/svg" width="134.135" height="90.667" viewBox="0 0 134.135 90.667">
  <g id="cama" transform="translate(0 -60.6)">
    <g id="Grupo_39" data-name="Grupo 39" transform="translate(0 60.6)">
      <path id="Caminho_35" data-name="Caminho 35" d="M121.08,95.748V73.942c0-9.755-6.886-13.342-13.342-13.342H25.966c-6.456,0-13.342,3.443-13.342,13.342V95.748C6.169,96.465,0,100.769,0,110.668V127.6a5.143,5.143,0,0,0,5.165,5.165H6.886V146.1a5.143,5.143,0,0,0,5.165,5.165h4.878a5.143,5.143,0,0,0,5.165-5.165V132.617h89.949V146.1a5.143,5.143,0,0,0,5.165,5.165h4.878a5.143,5.143,0,0,0,5.165-5.165V132.617h1.722a5.143,5.143,0,0,0,5.165-5.165V110.668C133.7,100.769,127.536,96.465,121.08,95.748ZM17.5,73.942h.287c0-6.743,4.447-8.177,8.177-8.177h81.772c3.73,0,8.177,1.435,8.177,8.177V95.6h-3.873V83.267a5.143,5.143,0,0,0-5.165-5.165H75.317a5.143,5.143,0,0,0-5.165,5.165V95.6H64.127V83.267A5.143,5.143,0,0,0,58.962,78.1H27.4a5.143,5.143,0,0,0-5.165,5.165V95.6H17.5Zm89.376,9.325V95.6H75.317V83.267Zm-47.629,0V95.6H27.688V83.267ZM16.785,146.1H11.907V132.617h4.878V146.1Zm105.013,0H116.92V132.617H121.8ZM128.54,127.6H5.021v-7.6H128.54Zm0-12.768H5.021v-4.16c0-8.608,6.312-9.9,9.9-9.9H118.641c3.73,0,9.9,1.291,9.9,9.9v4.16Z" transform="translate(0 -60.6)"/>
    </g>
  </g>
</svg>
