<svg xmlns="http://www.w3.org/2000/svg" xmlns:xlink="http://www.w3.org/1999/xlink" width="140" height="150" viewBox="0 0 140 150">
  <defs>
    <clipPath id="clip-path">
      <rect id="Rectangle_3" data-name="Rectangle 3" width="140" height="150" transform="translate(616 233)" fill="#fff"/>
    </clipPath>
  </defs>
  <g id="cama" transform="translate(-616 -233)" clip-path="url(#clip-path)">
    <g id="cama-2" data-name="cama" transform="translate(616 197.438)">
      <g id="Grupo_39" data-name="Grupo 39" transform="translate(0 63.248)">
        <path id="Caminho_35" data-name="Caminho 35" d="M126.371,99.932V77.173c0-10.181-7.187-13.925-13.925-13.925H27.1c-6.738,0-13.925,3.593-13.925,13.925V99.932C6.439,100.681,0,105.173,0,115.5v17.672a5.368,5.368,0,0,0,5.391,5.391h1.8v13.918a5.368,5.368,0,0,0,5.391,5.391h5.091a5.368,5.368,0,0,0,5.391-5.391V138.412h93.88v14.072a5.368,5.368,0,0,0,5.391,5.391h5.091a5.368,5.368,0,0,0,5.391-5.391V138.412h1.8A5.368,5.368,0,0,0,140,133.022V115.5C139.543,105.173,133.109,100.681,126.371,99.932ZM18.265,77.173h.3c0-7.038,4.641-8.534,8.534-8.534h85.345c3.893,0,8.534,1.5,8.534,8.534v22.6h-4.042V86.906a5.368,5.368,0,0,0-5.391-5.391H78.608a5.368,5.368,0,0,0-5.391,5.391V99.778H66.929V86.906a5.368,5.368,0,0,0-5.391-5.393H28.6A5.368,5.368,0,0,0,23.207,86.9V99.778H18.265Zm93.282,9.733V99.778H78.608V86.906Zm-49.71,0V99.778H28.9V86.906ZM17.519,152.485H12.427V138.412h5.091Zm109.6,0h-5.091V138.412h5.093Zm7.037-19.308H5.24v-7.932H134.157Zm0-13.326H5.24v-4.342c0-8.984,6.588-10.333,10.333-10.333H123.826c3.893,0,10.333,1.347,10.333,10.333v4.342Z" transform="translate(0 -63.248)"/>
      </g>
    </g>
  </g>
</svg>
