<svg xmlns="http://www.w3.org/2000/svg" width="102.34" height="142.8" viewBox="0 0 102.34 142.8">
  <g id="chuveiro" transform="translate(-68)">
    <g id="Grupo_2" data-name="Grupo 2" transform="translate(96.56 95.2)">
      <g id="Grupo_1" data-name="Grupo 1" transform="translate(0)">
        <path id="Caminho_12" data-name="Caminho 12" d="M166.38,320a2.38,2.38,0,0,0-2.38,2.38v9.52a2.38,2.38,0,1,0,4.76,0v-9.52A2.38,2.38,0,0,0,166.38,320Z" transform="translate(-164 -320)"/>
      </g>
    </g>
    <g id="Grupo_4" data-name="Grupo 4" transform="translate(106.08 95.2)">
      <g id="Grupo_3" data-name="Grupo 3" transform="translate(0)">
        <path id="Caminho_13" data-name="Caminho 13" d="M198.38,320a2.38,2.38,0,0,0-2.38,2.38v9.52a2.38,2.38,0,1,0,4.76,0v-9.52A2.38,2.38,0,0,0,198.38,320Z" transform="translate(-196 -320)"/>
      </g>
    </g>
    <g id="Grupo_6" data-name="Grupo 6" transform="translate(77.52 95.2)">
      <g id="Grupo_5" data-name="Grupo 5" transform="translate(0)">
        <path id="Caminho_14" data-name="Caminho 14" d="M102.38,320a2.38,2.38,0,0,0-2.38,2.38v9.52a2.38,2.38,0,1,0,4.76,0v-9.52A2.38,2.38,0,0,0,102.38,320Z" transform="translate(-100 -320)"/>
      </g>
    </g>
    <g id="Grupo_8" data-name="Grupo 8" transform="translate(87.04 95.2)">
      <g id="Grupo_7" data-name="Grupo 7">
        <path id="Caminho_15" data-name="Caminho 15" d="M134.38,320a2.38,2.38,0,0,0-2.38,2.38v9.52a2.38,2.38,0,1,0,4.76,0v-9.52A2.38,2.38,0,0,0,134.38,320Z" transform="translate(-132 -320)"/>
      </g>
    </g>
    <g id="Grupo_10" data-name="Grupo 10" transform="translate(115.6 95.2)">
      <g id="Grupo_9" data-name="Grupo 9" transform="translate(0)">
        <path id="Caminho_16" data-name="Caminho 16" d="M230.38,320a2.38,2.38,0,0,0-2.38,2.38v9.52a2.38,2.38,0,0,0,4.76,0v-9.52A2.38,2.38,0,0,0,230.38,320Z" transform="translate(-228 -320)"/>
      </g>
    </g>
    <g id="Grupo_12" data-name="Grupo 12" transform="translate(110.84 111.86)">
      <g id="Grupo_11" data-name="Grupo 11">
        <path id="Caminho_17" data-name="Caminho 17" d="M214.38,376a2.38,2.38,0,0,0-2.38,2.38v9.52a2.38,2.38,0,1,0,4.76,0v-9.52A2.38,2.38,0,0,0,214.38,376Z" transform="translate(-212 -376)"/>
      </g>
    </g>
    <g id="Grupo_14" data-name="Grupo 14" transform="translate(120.36 111.86)">
      <g id="Grupo_13" data-name="Grupo 13" transform="translate(0)">
        <path id="Caminho_18" data-name="Caminho 18" d="M246.38,376a2.38,2.38,0,0,0-2.38,2.38v9.52a2.38,2.38,0,1,0,4.76,0v-9.52A2.38,2.38,0,0,0,246.38,376Z" transform="translate(-244 -376)"/>
      </g>
    </g>
    <g id="Grupo_16" data-name="Grupo 16" transform="translate(101.32 111.86)">
      <g id="Grupo_15" data-name="Grupo 15">
        <path id="Caminho_19" data-name="Caminho 19" d="M182.38,376a2.38,2.38,0,0,0-2.38,2.38v9.52a2.38,2.38,0,1,0,4.76,0v-9.52A2.38,2.38,0,0,0,182.38,376Z" transform="translate(-180 -376)"/>
      </g>
    </g>
    <g id="Grupo_18" data-name="Grupo 18" transform="translate(91.8 111.86)">
      <g id="Grupo_17" data-name="Grupo 17" transform="translate(0)">
        <path id="Caminho_20" data-name="Caminho 20" d="M150.38,376a2.38,2.38,0,0,0-2.38,2.38v9.52a2.38,2.38,0,1,0,4.76,0v-9.52A2.38,2.38,0,0,0,150.38,376Z" transform="translate(-148 -376)"/>
      </g>
    </g>
    <g id="Grupo_20" data-name="Grupo 20" transform="translate(82.28 111.86)">
      <g id="Grupo_19" data-name="Grupo 19" transform="translate(0)">
        <path id="Caminho_21" data-name="Caminho 21" d="M118.38,376a2.38,2.38,0,0,0-2.38,2.38v9.52a2.38,2.38,0,1,0,4.76,0v-9.52A2.38,2.38,0,0,0,118.38,376Z" transform="translate(-116 -376)"/>
      </g>
    </g>
    <g id="Grupo_22" data-name="Grupo 22" transform="translate(72.76 111.86)">
      <g id="Grupo_21" data-name="Grupo 21">
        <path id="Caminho_22" data-name="Caminho 22" d="M86.38,376A2.38,2.38,0,0,0,84,378.38v9.52a2.38,2.38,0,1,0,4.76,0v-9.52A2.38,2.38,0,0,0,86.38,376Z" transform="translate(-84 -376)"/>
      </g>
    </g>
    <g id="Grupo_24" data-name="Grupo 24" transform="translate(106.08 128.52)">
      <g id="Grupo_23" data-name="Grupo 23" transform="translate(0)">
        <path id="Caminho_23" data-name="Caminho 23" d="M198.38,432a2.38,2.38,0,0,0-2.38,2.38v9.52a2.38,2.38,0,0,0,4.76,0v-9.52A2.38,2.38,0,0,0,198.38,432Z" transform="translate(-196 -432)"/>
      </g>
    </g>
    <g id="Grupo_26" data-name="Grupo 26" transform="translate(115.6 128.52)">
      <g id="Grupo_25" data-name="Grupo 25" transform="translate(0)">
        <path id="Caminho_24" data-name="Caminho 24" d="M230.38,432a2.38,2.38,0,0,0-2.38,2.38v9.52a2.38,2.38,0,0,0,4.76,0v-9.52A2.38,2.38,0,0,0,230.38,432Z" transform="translate(-228 -432)"/>
      </g>
    </g>
    <g id="Grupo_28" data-name="Grupo 28" transform="translate(125.12 128.52)">
      <g id="Grupo_27" data-name="Grupo 27">
        <path id="Caminho_25" data-name="Caminho 25" d="M262.38,432a2.38,2.38,0,0,0-2.38,2.38v9.52a2.38,2.38,0,0,0,4.76,0v-9.52A2.38,2.38,0,0,0,262.38,432Z" transform="translate(-260 -432)"/>
      </g>
    </g>
    <g id="Grupo_30" data-name="Grupo 30" transform="translate(96.56 128.52)">
      <g id="Grupo_29" data-name="Grupo 29" transform="translate(0)">
        <path id="Caminho_26" data-name="Caminho 26" d="M166.38,432a2.38,2.38,0,0,0-2.38,2.38v9.52a2.38,2.38,0,0,0,4.76,0v-9.52A2.38,2.38,0,0,0,166.38,432Z" transform="translate(-164 -432)"/>
      </g>
    </g>
    <g id="Grupo_32" data-name="Grupo 32" transform="translate(87.04 128.52)">
      <g id="Grupo_31" data-name="Grupo 31">
        <path id="Caminho_27" data-name="Caminho 27" d="M134.38,432a2.38,2.38,0,0,0-2.38,2.38v9.52a2.38,2.38,0,0,0,4.76,0v-9.52A2.38,2.38,0,0,0,134.38,432Z" transform="translate(-132 -432)"/>
      </g>
    </g>
    <g id="Grupo_34" data-name="Grupo 34" transform="translate(77.52 128.52)">
      <g id="Grupo_33" data-name="Grupo 33" transform="translate(0)">
        <path id="Caminho_28" data-name="Caminho 28" d="M102.38,432a2.38,2.38,0,0,0-2.38,2.38v9.52a2.38,2.38,0,0,0,4.76,0v-9.52A2.38,2.38,0,0,0,102.38,432Z" transform="translate(-100 -432)"/>
      </g>
    </g>
    <g id="Grupo_36" data-name="Grupo 36" transform="translate(68 128.52)">
      <g id="Grupo_35" data-name="Grupo 35">
        <path id="Caminho_29" data-name="Caminho 29" d="M70.38,432A2.38,2.38,0,0,0,68,434.38v9.52a2.38,2.38,0,0,0,4.76,0v-9.52A2.38,2.38,0,0,0,70.38,432Z" transform="translate(-68 -432)"/>
      </g>
    </g>
    <g id="Grupo_38" data-name="Grupo 38" transform="translate(68)">
      <g id="Grupo_37" data-name="Grupo 37">
        <path id="Caminho_30" data-name="Caminho 30" d="M167.96,0a11.914,11.914,0,0,0-11.9,11.9v2.38H98.94a7.14,7.14,0,0,0-7.14,7.14V40.46H89.42a2.38,2.38,0,0,0-2.38,2.38V54.768A30.94,30.94,0,0,0,68,83.3v7.14a2.38,2.38,0,0,0,2.38,2.38H127.5a2.38,2.38,0,0,0,2.38-2.38V83.3a30.94,30.94,0,0,0-19.04-28.531V42.84a2.38,2.38,0,0,0-2.38-2.38h-2.38V28.56h49.98v2.38a11.914,11.914,0,0,0,11.9,11.9,2.38,2.38,0,0,0,2.38-2.38V2.38A2.38,2.38,0,0,0,167.96,0ZM106.08,45.22v7.973c-.238-.057-.476-.079-.728-.129q-1.033-.221-2.08-.369c-.409-.057-.819-.114-1.233-.157q-1.262-.124-2.532-.145c-.19,0-.376-.033-.566-.033s-.362.029-.543.031c-.859.014-1.718.064-2.573.15-.4.038-.8.1-1.19.15-.714.1-1.428.238-2.142.378-.238.05-.476.069-.69.124l0-7.973Zm19.04,42.84H72.76V85.68h52.36ZM107.658,58.629A26.18,26.18,0,0,1,125.013,80.92H72.867a26.2,26.2,0,0,1,28.488-23.685q1.014.093,2.019.265A25.155,25.155,0,0,1,107.658,58.629ZM156.06,23.8H103.7a2.38,2.38,0,0,0-2.38,2.38V40.46H96.56V21.42a2.38,2.38,0,0,1,2.38-2.38h57.12Zm9.52,13.873a7.154,7.154,0,0,1-4.76-6.733V11.9a7.154,7.154,0,0,1,4.76-6.733Z" transform="translate(-68)"/>
      </g>
    </g>
  </g>
</svg>
