<svg xmlns="http://www.w3.org/2000/svg" xmlns:xlink="http://www.w3.org/1999/xlink" width="140" height="150" viewBox="0 0 140 150">
  <defs>
    <clipPath id="clip-path">
      <rect id="Rectangle_1" data-name="Rectangle 1" width="140" height="150" transform="translate(238 233)" fill="#fff"/>
    </clipPath>
  </defs>
  <g id="chuveiro" transform="translate(-238 -233)" clip-path="url(#clip-path)">
    <g id="chuveiro-2" data-name="chuveiro" transform="translate(182.821 233)">
      <g id="Grupo_2" data-name="Grupo 2" transform="translate(101.429 100)">
        <g id="Grupo_1" data-name="Grupo 1">
          <path id="Caminho_12" data-name="Caminho 12" d="M174.769,336.134a2.5,2.5,0,0,0-2.5,2.5v10a2.5,2.5,0,0,0,5,0v-10a2.5,2.5,0,0,0-2.5-2.5Z" transform="translate(-172.269 -336.134)"/>
        </g>
      </g>
      <g id="Grupo_4" data-name="Grupo 4" transform="translate(111.429 100)">
        <g id="Grupo_3" data-name="Grupo 3">
          <path id="Caminho_13" data-name="Caminho 13" d="M208.382,336.134a2.5,2.5,0,0,0-2.5,2.5v10a2.5,2.5,0,1,0,5,0v-10a2.5,2.5,0,0,0-2.5-2.5Z" transform="translate(-205.882 -336.134)"/>
        </g>
      </g>
      <g id="Grupo_6" data-name="Grupo 6" transform="translate(81.429 100)">
        <g id="Grupo_5" data-name="Grupo 5">
          <path id="Caminho_14" data-name="Caminho 14" d="M107.542,336.134a2.5,2.5,0,0,0-2.5,2.5v10a2.5,2.5,0,0,0,5,0v-10a2.5,2.5,0,0,0-2.5-2.5Z" transform="translate(-105.042 -336.134)"/>
        </g>
      </g>
      <g id="Grupo_8" data-name="Grupo 8" transform="translate(91.429 100)">
        <g id="Grupo_7" data-name="Grupo 7">
          <path id="Caminho_15" data-name="Caminho 15" d="M141.155,336.134a2.5,2.5,0,0,0-2.5,2.5v10a2.5,2.5,0,0,0,5,0v-10a2.5,2.5,0,0,0-2.5-2.5Z" transform="translate(-138.655 -336.134)"/>
        </g>
      </g>
      <g id="Grupo_10" data-name="Grupo 10" transform="translate(121.429 100)">
        <g id="Grupo_9" data-name="Grupo 9">
          <path id="Caminho_16" data-name="Caminho 16" d="M242,336.134a2.5,2.5,0,0,0-2.5,2.5v10a2.5,2.5,0,1,0,5,0v-10a2.5,2.5,0,0,0-2.5-2.5Z" transform="translate(-239.496 -336.134)"/>
        </g>
      </g>
      <g id="Grupo_12" data-name="Grupo 12" transform="translate(116.429 117.5)">
        <g id="Grupo_11" data-name="Grupo 11">
          <path id="Caminho_17" data-name="Caminho 17" d="M225.189,394.958a2.5,2.5,0,0,0-2.5,2.5v10a2.5,2.5,0,1,0,5,0v-10A2.5,2.5,0,0,0,225.189,394.958Z" transform="translate(-222.689 -394.958)"/>
        </g>
      </g>
      <g id="Grupo_14" data-name="Grupo 14" transform="translate(126.429 117.5)">
        <g id="Grupo_13" data-name="Grupo 13">
          <path id="Caminho_18" data-name="Caminho 18" d="M258.8,394.958a2.5,2.5,0,0,0-2.5,2.5v10a2.5,2.5,0,1,0,5,0v-10A2.5,2.5,0,0,0,258.8,394.958Z" transform="translate(-256.302 -394.958)"/>
        </g>
      </g>
      <g id="Grupo_16" data-name="Grupo 16" transform="translate(106.429 117.5)">
        <g id="Grupo_15" data-name="Grupo 15">
          <path id="Caminho_19" data-name="Caminho 19" d="M191.576,394.958a2.5,2.5,0,0,0-2.5,2.5v10a2.5,2.5,0,1,0,5,0v-10A2.5,2.5,0,0,0,191.576,394.958Z" transform="translate(-189.076 -394.958)"/>
        </g>
      </g>
      <g id="Grupo_18" data-name="Grupo 18" transform="translate(96.429 117.5)">
        <g id="Grupo_17" data-name="Grupo 17">
          <path id="Caminho_20" data-name="Caminho 20" d="M157.962,394.958a2.5,2.5,0,0,0-2.5,2.5v10a2.5,2.5,0,1,0,5,0v-10A2.5,2.5,0,0,0,157.962,394.958Z" transform="translate(-155.462 -394.958)"/>
        </g>
      </g>
      <g id="Grupo_20" data-name="Grupo 20" transform="translate(86.429 117.5)">
        <g id="Grupo_19" data-name="Grupo 19">
          <path id="Caminho_21" data-name="Caminho 21" d="M124.349,394.958a2.5,2.5,0,0,0-2.5,2.5v10a2.5,2.5,0,1,0,5,0v-10A2.5,2.5,0,0,0,124.349,394.958Z" transform="translate(-121.849 -394.958)"/>
        </g>
      </g>
      <g id="Grupo_22" data-name="Grupo 22" transform="translate(76.429 117.5)">
        <g id="Grupo_21" data-name="Grupo 21">
          <path id="Caminho_22" data-name="Caminho 22" d="M90.735,394.958a2.5,2.5,0,0,0-2.5,2.5v10a2.5,2.5,0,1,0,5,0v-10A2.5,2.5,0,0,0,90.735,394.958Z" transform="translate(-88.235 -394.958)"/>
        </g>
      </g>
      <g id="Grupo_24" data-name="Grupo 24" transform="translate(111.429 135)">
        <g id="Grupo_23" data-name="Grupo 23">
          <path id="Caminho_23" data-name="Caminho 23" d="M208.382,453.781a2.5,2.5,0,0,0-2.5,2.5v10a2.5,2.5,0,1,0,5,0v-10a2.5,2.5,0,0,0-2.5-2.5Z" transform="translate(-205.882 -453.781)"/>
        </g>
      </g>
      <g id="Grupo_26" data-name="Grupo 26" transform="translate(121.429 135)">
        <g id="Grupo_25" data-name="Grupo 25">
          <path id="Caminho_24" data-name="Caminho 24" d="M242,453.781a2.5,2.5,0,0,0-2.5,2.5v10a2.5,2.5,0,1,0,5,0v-10A2.5,2.5,0,0,0,242,453.781Z" transform="translate(-239.496 -453.781)"/>
        </g>
      </g>
      <g id="Grupo_28" data-name="Grupo 28" transform="translate(131.429 135)">
        <g id="Grupo_27" data-name="Grupo 27">
          <path id="Caminho_25" data-name="Caminho 25" d="M275.609,453.781a2.5,2.5,0,0,0-2.5,2.5v10a2.5,2.5,0,0,0,5,0v-10a2.5,2.5,0,0,0-2.5-2.5Z" transform="translate(-273.109 -453.781)"/>
        </g>
      </g>
      <g id="Grupo_30" data-name="Grupo 30" transform="translate(101.429 135)">
        <g id="Grupo_29" data-name="Grupo 29">
          <path id="Caminho_26" data-name="Caminho 26" d="M174.769,453.781a2.5,2.5,0,0,0-2.5,2.5v10a2.5,2.5,0,0,0,5,0v-10A2.5,2.5,0,0,0,174.769,453.781Z" transform="translate(-172.269 -453.781)"/>
        </g>
      </g>
      <g id="Grupo_32" data-name="Grupo 32" transform="translate(91.429 135)">
        <g id="Grupo_31" data-name="Grupo 31">
          <path id="Caminho_27" data-name="Caminho 27" d="M141.155,453.781a2.5,2.5,0,0,0-2.5,2.5v10a2.5,2.5,0,0,0,5,0v-10A2.5,2.5,0,0,0,141.155,453.781Z" transform="translate(-138.655 -453.781)"/>
        </g>
      </g>
      <g id="Grupo_34" data-name="Grupo 34" transform="translate(81.429 135)">
        <g id="Grupo_33" data-name="Grupo 33">
          <path id="Caminho_28" data-name="Caminho 28" d="M107.542,453.781a2.5,2.5,0,0,0-2.5,2.5v10a2.5,2.5,0,1,0,5,0v-10A2.5,2.5,0,0,0,107.542,453.781Z" transform="translate(-105.042 -453.781)"/>
        </g>
      </g>
      <g id="Grupo_36" data-name="Grupo 36" transform="translate(71.429 135)">
        <g id="Grupo_35" data-name="Grupo 35">
          <path id="Caminho_29" data-name="Caminho 29" d="M73.929,453.781a2.5,2.5,0,0,0-2.5,2.5v10a2.5,2.5,0,1,0,5,0v-10A2.5,2.5,0,0,0,73.929,453.781Z" transform="translate(-71.429 -453.781)"/>
        </g>
      </g>
      <g id="Grupo_38" data-name="Grupo 38" transform="translate(71.429)">
        <g id="Grupo_37" data-name="Grupo 37">
          <path id="Caminho_30" data-name="Caminho 30" d="M176.429,0a12.515,12.515,0,0,0-12.5,12.5V15h-60a7.5,7.5,0,0,0-7.5,7.5v20h-2.5a2.5,2.5,0,0,0-2.5,2.5V57.529a32.5,32.5,0,0,0-20,29.971V95a2.5,2.5,0,0,0,2.5,2.5h60a2.5,2.5,0,0,0,2.5-2.5V87.5a32.5,32.5,0,0,0-20-29.97V45a2.5,2.5,0,0,0-2.5-2.5h-2.5V30h52.5v2.5a12.515,12.515,0,0,0,12.5,12.5,2.5,2.5,0,0,0,2.5-2.5V2.5A2.5,2.5,0,0,0,176.429,0Zm-65,47.5v8.375c-.25-.06-.5-.083-.765-.136q-1.085-.232-2.185-.388c-.43-.06-.86-.12-1.3-.165q-1.326-.13-2.66-.152c-.2,0-.395-.035-.595-.035s-.38.03-.57.033q-1.353.022-2.7.158c-.42.04-.84.105-1.25.158-.75.105-1.5.25-2.25.4-.25.053-.5.072-.725.13V47.5Zm20,45h-55V90h55ZM113.086,61.585A27.5,27.5,0,0,1,131.316,85H76.541a27.521,27.521,0,0,1,29.924-24.879q1.065.1,2.121.278a26.423,26.423,0,0,1,4.5,1.186ZM163.929,25h-55a2.5,2.5,0,0,0-2.5,2.5v15h-5v-20a2.5,2.5,0,0,1,2.5-2.5h60Zm10,14.572a7.515,7.515,0,0,1-5-7.072v-20a7.515,7.515,0,0,1,5-7.072Z" transform="translate(-71.429)"/>
        </g>
      </g>
    </g>
  </g>
</svg>
