<svg xmlns="http://www.w3.org/2000/svg" xmlns:xlink="http://www.w3.org/1999/xlink" width="140" height="150" viewBox="0 0 140 150">
  <defs>
    <clipPath id="clip-path">
      <rect id="Rectangle_2" data-name="Rectangle 2" width="140" height="150" transform="translate(427 233)" fill="#fff"/>
    </clipPath>
  </defs>
  <g id="cozinha" transform="translate(-427 -233)" clip-path="url(#clip-path)">
    <g id="chapeu-de-chef" transform="translate(393.206 233.001)">
      <path id="Caminho_31" data-name="Caminho 31" d="M206.938,319.814h8.823v26.469h-8.823Z" transform="translate(-129.609 -244.816)" fill="#e8e8e0"/>
      <path id="Caminho_32" data-name="Caminho 32" d="M301,319.814h8.823v26.469H301Z" transform="translate(-201.613 -244.816)" fill="#e8e8e0"/>
      <path id="Caminho_33" data-name="Caminho 33" d="M395.064,319.814h8.823v26.469h-8.823Z" transform="translate(-273.618 -244.816)" fill="#e8e8e0"/>
      <path id="Caminho_34" data-name="Caminho 34" d="M139.088,8.823A30.745,30.745,0,0,0,125.835,11.8a26.477,26.477,0,0,0-44.08,0A30.889,30.889,0,0,0,55.266,67.615V150h97.057V67.612A30.885,30.885,0,0,0,139.088,8.823ZM143.5,141.172H64.094V123.526H143.5Zm2.941-80.666-2.941,1.04V114.7H64.094V61.547l-2.941-1.04a22.061,22.061,0,1,1,19.83-38.995l4.455,3.061L87.545,19.6a17.649,17.649,0,0,1,32.509,0l2.107,4.978,4.455-3.061a22.061,22.061,0,1,1,19.83,38.993Z" fill="#e8e8e0"/>
    </g>
  </g>
</svg>
