<svg xmlns="http://www.w3.org/2000/svg" width="105.527" height="119.598" viewBox="0 0 105.527 119.598">
  <g id="chapeu-de-chef" transform="translate(-30)">
    <path id="Caminho_31" data-name="Caminho 31" d="M165,255h7.035v21.105H165Z" transform="translate(-103.342 -195.201)" fill="#e8e8e0"/>
    <path id="Caminho_32" data-name="Caminho 32" d="M240,255h7.035v21.105H240Z" transform="translate(-160.754 -195.201)" fill="#e8e8e0"/>
    <path id="Caminho_33" data-name="Caminho 33" d="M315,255h7.035v21.105H315Z" transform="translate(-218.166 -195.201)" fill="#e8e8e0"/>
    <path id="Caminho_34" data-name="Caminho 34" d="M110.9,7.035a24.514,24.514,0,0,0-10.567,2.377,21.111,21.111,0,0,0-35.147,0,24.628,24.628,0,1,0-21.12,44.5V119.6h77.387V53.91A24.626,24.626,0,0,0,110.9,7.035Zm3.518,105.527H51.105V98.492h63.316Zm2.345-64.318-2.345.829V91.457H51.105V49.074l-2.345-.829A17.59,17.59,0,1,1,64.571,17.153l3.552,2.441,1.68-3.969a14.072,14.072,0,0,1,25.921,0l1.68,3.969,3.552-2.441a17.59,17.59,0,1,1,15.811,31.091Z" fill="#e8e8e0"/>
  </g>
</svg>
