<svg xmlns="http://www.w3.org/2000/svg" width="33" height="24.75" viewBox="0 0 33 24.75">
  <g id="email" transform="translate(0 -64)">
    <g id="Grupo_42" data-name="Grupo 42" transform="translate(0 64)">
      <path id="Caminho_49" data-name="Caminho 49" d="M32.411,64H.589A.589.589,0,0,0,0,64.589V88.161a.589.589,0,0,0,.589.589H32.411A.589.589,0,0,0,33,88.161V64.589A.589.589,0,0,0,32.411,64ZM10.449,78.545,2.2,87.384a.589.589,0,1,1-.862-.8l8.25-8.839a.589.589,0,1,1,.862.8Zm21.185,8.868a.589.589,0,0,1-.833-.029l-8.25-8.839a.589.589,0,1,1,.862-.8l8.25,8.839A.589.589,0,0,1,31.634,87.413Zm-.023-21.194L18.016,77.639a2.354,2.354,0,0,1-3.033,0L1.389,66.219a.589.589,0,0,1,.758-.9l13.595,11.42a1.179,1.179,0,0,0,1.517,0l13.595-11.42a.589.589,0,0,1,.758.9Z" transform="translate(0 -64)" fill="#f2f2f2"/>
    </g>
  </g>
</svg>
