<svg xmlns="http://www.w3.org/2000/svg" xmlns:xlink="http://www.w3.org/1999/xlink" width="20" height="20" viewBox="0 0 20 20">
  <defs>
    <clipPath id="clip-path">
      <rect id="Rectangle_2" data-name="Rectangle 2" width="20" height="20" transform="translate(227 403)" fill="#fff"/>
    </clipPath>
  </defs>
  <g id="Mask_Group_2" data-name="Mask Group 2" transform="translate(-227 -403)" clip-path="url(#clip-path)">
    <g id="email" transform="translate(227 366.712)">
      <g id="Grupo_42" data-name="Grupo 42" transform="translate(0 38.788)">
        <path id="Caminho_49" data-name="Caminho 49" d="M19.643,38.788H.357A.357.357,0,0,0,0,39.145V53.431a.357.357,0,0,0,.357.357H19.643A.357.357,0,0,0,20,53.431V39.145a.357.357,0,0,0-.357-.357ZM6.333,47.6l-5,5.357a.357.357,0,1,1-.522-.485l5-5.357a.357.357,0,1,1,.522.485Zm12.839,5.375a.357.357,0,0,1-.5-.018l-5-5.357a.357.357,0,1,1,.522-.485l5,5.357a.357.357,0,0,1-.018.5Zm-.014-12.845-8.239,6.921a1.427,1.427,0,0,1-1.838,0L.842,40.133a.357.357,0,0,1,.459-.545l8.239,6.921a.715.715,0,0,0,.919,0L18.7,39.587a.357.357,0,0,1,.459.545Z" transform="translate(0 -38.788)" fill="#f2f2f2"/>
      </g>
    </g>
  </g>
</svg>
