<svg xmlns="http://www.w3.org/2000/svg" width="15.333" height="28.009" viewBox="0 0 15.333 28.009">
  <g id="Facebook_-_Logo" data-name="Facebook - Logo" transform="translate(368 1076)">
    <path id="Caminho_4" data-name="Caminho 4" d="M136.632-511.923a5.748,5.748,0,0,0-4.2,2.867c-.546,1.018-.6,1.384-.6,4.289v2.4H128V-498h3.836v14h5.755v-14l1.924-.011,1.924-.016.947-2.161.947-2.161-2.871-.016-2.877-.011.018-1.958.018-1.953.156-.306a1.841,1.841,0,0,1,.947-.864c.324-.137.39-.142,1.523-.159l1.181-.022V-512l-2.2.005C137.783-511.989,136.89-511.967,136.632-511.923Z" transform="translate(-496 -564)" fill="#f2f2f2"/>
  </g>
</svg>
