<svg xmlns="http://www.w3.org/2000/svg" width="26.333" height="26.333" viewBox="0 0 26.333 26.333">
  <g id="Instagram_-_Logo" data-name="Instagram - Logo" transform="translate(-0.025 511.825)">
    <path id="Caminho_1" data-name="Caminho 1" d="M7.4-511.783a8.238,8.238,0,0,0-7.325,7.368c-.067.633-.067,10.872,0,11.5a8.213,8.213,0,0,0,7.366,7.368c.633.067,10.869.067,11.5,0a8.213,8.213,0,0,0,7.366-7.368c.067-.633.067-10.872,0-11.5a8.213,8.213,0,0,0-7.366-7.368C18.382-511.839,7.955-511.839,7.4-511.783Zm11.913,2.542a5.889,5.889,0,0,1,2.88,1.574,5.81,5.81,0,0,1,1.579,2.933c.087.406.093.813.093,6.071s-.005,5.665-.093,6.071a5.81,5.81,0,0,1-1.579,2.933,5.808,5.808,0,0,1-2.932,1.58c-.406.087-.813.093-6.07.093s-5.663-.005-6.07-.093a5.808,5.808,0,0,1-2.932-1.58,5.81,5.81,0,0,1-1.579-2.933c-.087-.406-.093-.813-.093-6.071s.005-5.665.093-6.071a5.807,5.807,0,0,1,3.071-4.013,6.116,6.116,0,0,1,1.955-.581c.072-.015,2.639-.021,5.71-.015C18.515-509.333,18.953-509.328,19.313-509.241Z" transform="translate(0 0)" fill="#f2f2f2"/>
    <path id="Caminho_2" data-name="Caminho 2" d="M377.632-410.461a.852.852,0,0,0-.632.858.848.848,0,0,0,.864.864.859.859,0,0,0,.869-.658A.88.88,0,0,0,377.632-410.461Z" transform="translate(-357.617 -96.117)" fill="#f2f2f2"/>
    <path id="Caminho_3" data-name="Caminho 3" d="M134.446-383.567a6.809,6.809,0,0,0-5.509,4.514,5.9,5.9,0,0,0-.337,2.17,5.911,5.911,0,0,0,.342,2.186,6.851,6.851,0,0,0,4.2,4.187,5.9,5.9,0,0,0,2.17.337,5.9,5.9,0,0,0,2.17-.337,6.851,6.851,0,0,0,4.2-4.187,5.911,5.911,0,0,0,.342-2.186,6.418,6.418,0,0,0-.09-1.264,6.707,6.707,0,0,0-1.954-3.571,6.651,6.651,0,0,0-3.376-1.775A8.691,8.691,0,0,0,134.446-383.567Zm2.049,2.654a4.209,4.209,0,0,1,2.944,4.808,4.212,4.212,0,0,1-3.35,3.35,4.166,4.166,0,0,1-3.745-1.164,4.188,4.188,0,0,1,.864-6.6A4.2,4.2,0,0,1,136.495-380.913Z" transform="translate(-122.118 -121.778)" fill="#f2f2f2"/>
  </g>
</svg>
