<svg xmlns="http://www.w3.org/2000/svg" width="123.589" height="77.389" viewBox="0 0 123.589 77.389">
  <g id="sofa_1_" data-name="sofa (1)" transform="translate(0 -85.407)">
    <path id="Caminho_36" data-name="Caminho 36" d="M109.5,143.266a2.027,2.027,0,1,0-1.436-.6A2.041,2.041,0,0,0,109.5,143.266Z" transform="translate(-78.405 -39.25)" fill="#e8e8e0"/>
    <path id="Caminho_37" data-name="Caminho 37" d="M185.162,143.266a2.032,2.032,0,1,0-1.433-.6A2.042,2.042,0,0,0,185.162,143.266Z" transform="translate(-133.601 -39.25)" fill="#e8e8e0"/>
    <path id="Caminho_38" data-name="Caminho 38" d="M336.5,143.266a2.027,2.027,0,1,0-1.436-.6A2.041,2.041,0,0,0,336.5,143.266Z" transform="translate(-244.008 -39.25)" fill="#e8e8e0"/>
    <path id="Caminho_39" data-name="Caminho 39" d="M260.832,143.266a2.032,2.032,0,1,0-1.434-.6A2.036,2.036,0,0,0,260.832,143.266Z" transform="translate(-188.805 -39.25)" fill="#e8e8e0"/>
    <path id="Caminho_40" data-name="Caminho 40" d="M109.5,202.266a2.027,2.027,0,1,0-1.436-.6A2.041,2.041,0,0,0,109.5,202.266Z" transform="translate(-78.405 -82.293)" fill="#e8e8e0"/>
    <path id="Caminho_41" data-name="Caminho 41" d="M185.162,202.266a2.032,2.032,0,1,0-1.433-.6A2.042,2.042,0,0,0,185.162,202.266Z" transform="translate(-133.601 -82.293)" fill="#e8e8e0"/>
    <path id="Caminho_42" data-name="Caminho 42" d="M336.5,202.266a2.027,2.027,0,1,0-1.436-.6A2.041,2.041,0,0,0,336.5,202.266Z" transform="translate(-244.008 -82.293)" fill="#e8e8e0"/>
    <path id="Caminho_43" data-name="Caminho 43" d="M260.832,202.266a2.032,2.032,0,1,0-1.434-.6A2.036,2.036,0,0,0,260.832,202.266Z" transform="translate(-188.805 -82.293)" fill="#e8e8e0"/>
    <path id="Caminho_44" data-name="Caminho 44" d="M113.839,116.329V101.089A15.7,15.7,0,0,0,98.157,85.407H25.431A15.7,15.7,0,0,0,9.749,101.089v15.241a10.722,10.722,0,0,0-5.112,19.506v13.619a6.835,6.835,0,0,0,5.228,6.634v4.678a2.029,2.029,0,0,0,2.029,2.029H21.942a2.029,2.029,0,0,0,2.029-2.029v-4.488H99.618v4.488a2.029,2.029,0,0,0,2.029,2.029h10.047a2.029,2.029,0,0,0,2.029-2.029v-4.678a6.835,6.835,0,0,0,5.228-6.634V135.836a10.722,10.722,0,0,0-5.112-19.506ZM25.431,89.464H98.157a11.638,11.638,0,0,1,11.625,11.624v15.649a10.741,10.741,0,0,0-7.64,10.269v3.279H21.447v-3.279a10.741,10.741,0,0,0-7.64-10.269V101.088A11.638,11.638,0,0,1,25.431,89.464Zm76.216,62.758h-80.2v-3.393h80.695v3.393h-.495Zm.495-7.45h-80.7V134.342h80.695v10.429ZM8.694,149.455V134.787c0-.048,0-.1,0-.145a2.029,2.029,0,0,0-1.08-1.739,6.666,6.666,0,1,1,9.774-5.9v25.216H11.462a2.77,2.77,0,0,1-2.767-2.767Zm11.219,9.284h-5.99v-2.46h5.99Zm89.753,0h-5.99v-2.46h5.99Zm6.307-25.835a2.029,2.029,0,0,0-1.079,1.739c0,.039,0,.079,0,.118v14.693a2.77,2.77,0,0,1-2.767,2.767H106.2V127.006a6.666,6.666,0,1,1,9.774,5.9Z" fill="#e8e8e0"/>
  </g>
</svg>
